<?xml version="1.0" encoding="UTF-8" standalone="no"?>
<!-- Created with Inkscape (http://www.inkscape.org/) -->

<svg
   xmlns:dc="http://purl.org/dc/elements/1.1/"
   xmlns:cc="http://creativecommons.org/ns#"
   xmlns:rdf="http://www.w3.org/1999/02/22-rdf-syntax-ns#"
   xmlns:svg="http://www.w3.org/2000/svg"
   xmlns="http://www.w3.org/2000/svg"
   xmlns:sodipodi="http://sodipodi.sourceforge.net/DTD/sodipodi-0.dtd"
   xmlns:inkscape="http://www.inkscape.org/namespaces/inkscape"
   width="210mm"
   height="210mm"
   viewBox="0 0 210 210"
   version="1.1"
   id="svg8"
   inkscape:version="0.92.3 (2405546, 2018-03-11)"
   sodipodi:docname="icon.svg">
  <defs
     id="defs2" />
  <sodipodi:namedview
     id="base"
     pagecolor="#ffffff"
     bordercolor="#666666"
     borderopacity="1.0"
     inkscape:pageopacity="0.0"
     inkscape:pageshadow="2"
     inkscape:zoom="0.7"
     inkscape:cx="144.92894"
     inkscape:cy="486.73117"
     inkscape:document-units="mm"
     inkscape:current-layer="layer1"
     showgrid="false"
     showguides="true"
     inkscape:guide-bbox="true"
     inkscape:window-width="1866"
     inkscape:window-height="1051"
     inkscape:window-x="54"
     inkscape:window-y="708"
     inkscape:window-maximized="1" />
  <metadata
     id="metadata5">
    <rdf:RDF>
      <cc:Work
         rdf:about="">
        <dc:format>image/svg+xml</dc:format>
        <dc:type
           rdf:resource="http://purl.org/dc/dcmitype/StillImage" />
        <dc:title />
      </cc:Work>
    </rdf:RDF>
  </metadata>
  <g
     inkscape:label="Layer 1"
     inkscape:groupmode="layer"
     id="layer1"
     transform="translate(0,-87)">
    <path
       style="fill:#5e5e5e;fill-opacity:1;stroke-width:0.25764495"
       d="M 97.615234,89.480469 C 56.917242,92.041622 19.452313,120.87655 7.0357514,159.78705 c -14.387816,40.9377 0.9009289,89.9149 36.1023316,115.31249 34.576007,26.78416 86.435387,27.38554 121.606657,1.37671 36.63133,-25.13288 52.86635,-75.50867 37.75396,-117.29516 -13.09777,-40.5756 -53.69874,-69.87783 -96.29407,-69.889104 -2.85887,-0.154058 -5.72831,0.154319 -8.589396,0.188483 z"
       id="path39"
       inkscape:connector-curvature="0" />
    <path
       style="fill:#313131;fill-opacity:1;stroke-width:0.25764495"
       d="M 100.64844,95.257812 C 54.05655,96.602508 11.673753,136.06691 8.0234375,182.8418 3.3940881,226.50793 31.892606,271.92945 74.359375,284.86719 113.07422,297.78512 159.62164,283.82175 183.3993,249.96956 207.55047,216.91492 208.71046,168.3736 183.64823,135.44121 164.6398,109.42077 132.50842,93.590669 100.64844,95.257812 Z"
       id="path39-3"
       inkscape:connector-curvature="0" />
    <path
       style="fill:none;stroke:#000000;stroke-width:0.85841483;stroke-linecap:butt;stroke-linejoin:miter;stroke-miterlimit:4;stroke-dasharray:none;stroke-opacity:1"
       d="m 103.0922,178.73513 -1e-5,110.73784 5.697,-11.09479 c 0,0 5.66333,-12.18776 5.90025,-30.30662 -3.56101,-19.57056 -5.46345,-45.06434 -3.44821,-69.34032"
       id="path4771"
       inkscape:connector-curvature="0" />
    <path
       style="fill:none;stroke:#000000;stroke-width:0.85841483;stroke-linecap:butt;stroke-linejoin:miter;stroke-miterlimit:4;stroke-dasharray:none;stroke-opacity:1"
       d="m 94.940551,178.72842 c 2.015525,24.27658 0.113066,49.77122 -3.448045,69.34233 0.236909,18.11887 5.900239,30.30663 5.900239,30.30663 l 5.697005,11.09439 V 178.73515"
       id="path4765"
       inkscape:connector-curvature="0" />
    <circle
       style="fill:none;stroke:#000000;stroke-width:0.85841483;stroke-miterlimit:4;stroke-dasharray:none;stroke-opacity:1"
       id="path4528"
       cx="103.63667"
       cy="124.66903"
       r="6.9495454" />
    <path
       style="fill:none;stroke:#000000;stroke-width:0.85841483;stroke-linecap:butt;stroke-linejoin:miter;stroke-miterlimit:4;stroke-dasharray:none;stroke-opacity:1"
       d="m 98.233285,171.17086 c 0,0 -0.835852,-9.43675 -1.196203,-16.22482 -0.360355,-6.78808 -2.95446,-18.69607 5.330078,-23.47915"
       id="path4575"
       inkscape:connector-curvature="0"
       sodipodi:nodetypes="ccc" />
    <path
       style="fill:none;stroke:#000000;stroke-width:0.85841483;stroke-linecap:butt;stroke-linejoin:miter;stroke-miterlimit:4;stroke-dasharray:none;stroke-opacity:1"
       d="m 108.95177,171.17086 c 0,0 0.83585,-9.43675 1.1962,-16.22482 0.36035,-6.78808 2.95446,-18.69607 -5.3301,-23.47915"
       id="path4575-5"
       inkscape:connector-curvature="0"
       sodipodi:nodetypes="ccc" />
    <path
       style="fill:none;stroke:#000000;stroke-width:0.9310559;stroke-linecap:butt;stroke-linejoin:miter;stroke-miterlimit:4;stroke-dasharray:none;stroke-opacity:1"
       d="M 103.5884,117.78238 V 95.05736"
       id="path4620"
       inkscape:connector-curvature="0" />
    <path
       inkscape:connector-curvature="0"
       id="path4691-9"
       style="fill:none;stroke:#000000;stroke-width:0.85841483;stroke-linecap:butt;stroke-linejoin:miter;stroke-miterlimit:4;stroke-dasharray:none;stroke-opacity:1"
       d="m 111.93687,171.1667 -17.825375,-6.2e-4 m 0.760158,7.56461 16.369577,6.2e-4 M 72.940972,165.34025 c -3.045725,0 -5.514769,3.53267 -5.514729,7.89041 1.01e-4,4.35758 2.469105,7.89 5.514729,7.88999 2.266043,-0.003 4.143584,-1.98939 4.971525,-5.00742 l 16.959156,2.61723 -0.760158,-7.56455 -16.016312,-0.0593 c -0.665903,-3.40881 -2.680415,-5.76607 -5.154211,-5.76638 z m 60.322868,6.2e-4 c -2.47378,4.2e-4 -4.48789,2.35758 -5.15379,5.76638 l -16.01631,0.0593 -0.85251,7.56456 17.05151,-2.61724 c 0.82792,3.01803 2.70509,5.00422 4.9711,5.00741 3.04563,2e-5 5.51464,-3.5324 5.51474,-7.88999 4e-5,-4.35773 -2.46901,-7.89041 -5.51474,-7.8904 z" />
    <path
       style="fill:#ffcc00;stroke:#000000;stroke-width:0.30657673;stroke-miterlimit:4;stroke-dasharray:none;stroke-opacity:1"
       d="m 71.856651,180.46374 c -0.956742,-0.32738 -1.758359,-0.96295 -2.413669,-1.91374 -1.055025,-1.53068 -1.525333,-3.19012 -1.520893,-5.36626 0.003,-1.38323 0.143933,-2.22625 0.57402,-3.42962 1.307708,-3.65875 4.52285,-5.05281 6.856469,-2.97289 1.064213,0.94852 1.929672,2.60029 2.25838,4.3102 l 0.08685,0.45175 7.989913,0.055 7.989934,0.0549 0.04078,0.30441 c 0.08293,0.61929 0.633114,6.18742 0.613105,6.20493 -0.01135,0.01 -1.049427,-0.14213 -2.306715,-0.33803 -5.862541,-0.91348 -14.284936,-2.20728 -14.369074,-2.20728 -0.05342,0 -0.165469,0.24903 -0.261274,0.58054 -0.62568,2.16532 -1.963059,3.82601 -3.451329,4.28569 -0.656218,0.20267 -1.458806,0.19513 -2.086489,-0.0197 z"
       id="path4777"
       inkscape:connector-curvature="0" />
    <path
       style="fill:#ffcc00;stroke:#000000;stroke-width:0.30657673;stroke-miterlimit:4;stroke-dasharray:none;stroke-opacity:1"
       d="m 132.21366,180.47473 c -0.5658,-0.19424 -1.34519,-0.71177 -1.74044,-1.15568 -0.69355,-0.77894 -1.29348,-1.89397 -1.65271,-3.0717 -0.10573,-0.34658 -0.23169,-0.62978 -0.27994,-0.6293 -0.0482,4.2e-4 -3.83743,0.57755 -8.42046,1.28237 -4.58299,0.70483 -8.33685,1.27684 -8.34189,1.27116 -0.005,-0.006 0.1517,-1.42063 0.34833,-3.14433 0.19661,-1.7237 0.35836,-3.18768 0.35943,-3.2533 0.003,-0.10883 0.70288,-0.12408 7.98443,-0.17364 4.39035,-0.0299 7.99007,-0.0613 7.99938,-0.0697 0.009,-0.008 0.11286,-0.39513 0.23008,-0.85927 0.75975,-3.00825 2.50697,-4.86173 4.58302,-4.86173 1.00829,0 1.90003,0.42197 2.80217,1.32602 1.35222,1.35508 2.09514,3.25986 2.18966,5.61411 0.0688,1.71373 -0.17744,3.13072 -0.78249,4.5024 -0.74135,1.6807 -2.10075,3.00057 -3.39819,3.29939 -0.55011,0.12669 -1.38723,0.0925 -1.88038,-0.0768 z"
       id="path4779"
       inkscape:connector-curvature="0" />
    <path
       style="fill:#ffcc00;fill-opacity:1;stroke:#000000;stroke-width:0.30657673;stroke-miterlimit:4;stroke-dasharray:none;stroke-opacity:1"
       d="m 95.273637,178.03219 c -0.03952,-0.24079 -0.631008,-6.15963 -0.631008,-6.31435 0,-0.0605 2.261333,-0.0827 8.465781,-0.0827 h 8.46582 l -0.37238,3.31834 -0.37236,3.31834 h -7.75827 -7.75825 z"
       id="path4783"
       inkscape:connector-curvature="0" />
    <path
       style="fill:#4d4d4d;stroke:#000000;stroke-width:0.86712992;stroke-miterlimit:4;stroke-dasharray:none;stroke-opacity:1"
       d="m 95.510524,179.33462 c 1.540633,20.57789 0.626466,41.32462 -2.340308,61.73621 -0.58519,3.69822 -1.401572,7.41083 -0.96465,11.17729 0.526283,8.10579 1.962832,16.23382 4.896941,23.82923 1.604138,3.70285 3.468003,7.39531 5.392293,10.8787 0.0843,-35.87821 0.0663,-71.77978 0.0351,-107.64384 -2.33636,0.015 -4.699255,-0.0299 -7.019308,0.0224 z"
       id="path4807"
       inkscape:connector-curvature="0" />
    <path
       style="fill:#4d4d4d;stroke:#000000;stroke-width:0.71092349;stroke-miterlimit:4;stroke-dasharray:none;stroke-opacity:1"
       d="m 103.5519,179.333 c 0.003,35.9785 0.005,71.95699 0.007,107.9355 2.88883,-5.44203 5.99223,-11.00705 7.48907,-17.08605 1.90103,-7.10962 3.01059,-14.47063 3.04295,-21.83404 -0.88277,-6.49241 -2.02962,-12.95656 -2.6223,-19.4895 -1.22613,-11.43973 -1.69687,-22.95116 -1.43934,-34.45376 0.09,-5.0317 0.18252,-10.09934 0.67602,-15.09294 -2.38138,0.0141 -4.78623,-0.0276 -7.15333,0.0208 z"
       id="path4809"
       inkscape:connector-curvature="0" />
    <path
       style="fill:#000000;stroke:#000000;stroke-width:0.01916104;stroke-miterlimit:4;stroke-dasharray:none;stroke-opacity:1"
       d="m 103.51819,287.35439 c -0.0217,0.022 -0.008,0.0583 -0.013,0.0862 1e-5,0.0822 -0.003,0.16517 0.003,0.24691 0.009,0.0313 0.0455,0.008 0.0479,-0.0153 0.0435,-0.087 0.0912,-0.17279 0.13212,-0.26061 0.005,-0.0333 -0.0419,-0.028 -0.063,-0.0373 -0.0346,-0.006 -0.0703,-0.0252 -0.10524,-0.0198 z"
       id="path4819"
       inkscape:connector-curvature="0" />
    <path
       style="fill:#9d4100;fill-opacity:1;stroke:#000000;stroke-width:0.43356496;stroke-miterlimit:4;stroke-dasharray:none;stroke-opacity:1"
       d="m 102.32329,132.02797 c -2.632925,1.67086 -4.397655,4.49877 -4.972021,7.54175 -1.081743,5.50609 -0.05795,11.10993 0.219126,16.64087 0.3326,4.81726 0.62635,9.64011 1.1076,14.44498 3.255785,0.0307 6.558245,0.0292 9.814845,6.3e-4 0.47077,-4.24334 0.69437,-8.5134 1.01117,-12.77126 0.20626,-4.81187 0.95193,-9.60187 0.80791,-14.42568 -0.14217,-3.2219 -0.82905,-6.61245 -2.91271,-9.16976 -0.77121,-0.84039 -1.59424,-1.74631 -2.61927,-2.23512 -0.81866,-0.007 -1.63899,-0.0258 -2.45665,-0.0266 z"
       id="path4821"
       inkscape:connector-curvature="0" />
    <path
       style="fill:#ffd42a;stroke:#000000;stroke-width:0.43356496;stroke-miterlimit:4;stroke-dasharray:none;stroke-opacity:1"
       d="m 103.36778,118.18732 c -2.71402,0.0866 -5.197715,2.15193 -5.958306,4.72667 -0.5574,2.15125 -0.07013,4.62495 1.588311,6.17932 1.748065,2.0025 4.809295,2.60876 7.210955,1.49747 2.46675,-1.05364 4.15782,-3.73849 3.85453,-6.43414 -0.11621,-2.47982 -1.95402,-4.67858 -4.21382,-5.57437 -0.79141,-0.28776 -1.64009,-0.42172 -2.48167,-0.39495 z"
       id="path4823"
       inkscape:connector-curvature="0" />
    <path
       style="fill:#ffd42a;stroke:#000000;stroke-width:0.43356496;stroke-miterlimit:4;stroke-dasharray:none;stroke-opacity:1"
       d="m 96.006044,179.79378 c 0.78828,10.12654 0.718469,20.29651 0.486867,30.44343 -0.472909,11.81922 -1.665819,23.60824 -3.552088,35.28496 -0.725304,4.42273 -0.126631,8.90708 0.39162,13.31586 0.809587,6.02967 2.167201,12.02846 4.491462,17.66406 1.24226,2.88333 2.710095,5.66132 4.106245,8.47157 0.10129,-2.16615 0.0339,-4.46601 0.0703,-6.68356 0.12745,-29.2425 0.13666,-58.48554 0.0709,-87.72821 -0.0309,-3.59397 -0.0301,-7.21053 -0.10492,-10.79011 -1.983435,0.0148 -3.992835,-0.0293 -5.960361,0.022 z"
       id="path4825"
       inkscape:connector-curvature="0" />
    <path
       style="fill:#4b4b8a;fill-opacity:1;stroke:#000000;stroke-width:0.43388969;stroke-miterlimit:4;stroke-dasharray:none;stroke-opacity:1"
       d="m 107.10956,179.76913 c -1.01882,-0.003 -2.03577,-5.9e-4 -3.04348,0.0234 0.0128,35.10672 -0.0313,70.21327 0.04,105.31987 0.50888,-0.6752 0.86464,-1.61067 1.30459,-2.38494 2.23199,-4.23112 4.21565,-8.62905 5.3405,-13.29584 1.68042,-6.52779 2.74331,-13.24257 2.84469,-19.98975 -0.18196,-3.67625 -0.94515,-7.29379 -1.39653,-10.94155 -1.3143,-9.13578 -2.15828,-18.34265 -2.49585,-27.5668 -0.17361,-7.65924 -0.1594,-15.32404 0.0101,-22.98323 0.0632,-2.72759 0.28192,-5.47208 0.45048,-8.17834 -1.01481,0.007 -2.03556,-2.3e-4 -3.05439,-0.003 z m -5.45423,0.21133 c -0.85491,6e-4 -1.709875,6.1e-4 -2.564805,0.002 -0.89345,0.0403 -1.839708,-0.0606 -2.705952,0.10647 -0.113003,1.62932 0.182875,3.27315 0.208087,4.90781 0.337153,7.51064 0.205875,15.03286 0.183101,22.54849 -0.05308,6.24512 -0.58133,12.47512 -1.12029,18.69364 -0.5963,6.63462 -1.538011,13.22992 -2.512778,19.81673 -0.670258,5.15213 0.114469,10.34243 0.859368,15.44044 1.051886,6.51361 2.832215,12.96775 5.909934,18.83196 0.588085,1.1414 1.119885,2.40391 1.744535,3.46974 0.17354,-12.59459 0.0936,-25.19144 0.13187,-37.7869 0,-21.40381 0.0455,-42.80764 -0.0444,-64.21123 -0.0371,-0.60286 -0.0187,-1.23064 -0.0887,-1.81875 z"
       id="path4829"
       inkscape:connector-curvature="0" />
    <path
       style="fill:#ffda4d;fill-opacity:1;stroke:none;stroke-width:0.43356496;stroke-miterlimit:4;stroke-dasharray:none;stroke-opacity:1"
       d="m 101.51136,172.23362 c -2.058875,0.0276 -4.126624,-0.0256 -6.17568,0.0694 0.115068,1.78863 0.307711,3.55387 0.513363,5.33406 4.815677,0.091 9.632417,0.0352 14.448357,-3.9e-4 0.19343,-1.80198 0.43384,-3.59907 0.59363,-5.40465 -3.12656,-6.2e-4 -6.25312,-3e-5 -9.37967,0.002 z"
       id="path4833"
       inkscape:connector-curvature="0" />
    <path
       style="fill:#8c8ca4;fill-opacity:1;stroke:none;stroke-width:0.61315346;stroke-miterlimit:4;stroke-dasharray:none;stroke-opacity:1"
       d="m 97.333349,180.22499 c -0.592586,0.008 -0.991763,0.26148 -0.719133,0.92375 0.493887,8.36288 0.429219,16.75217 0.417883,25.12784 -0.07658,11.31462 -1.245703,22.59425 -2.746114,33.79949 -0.778575,4.77266 -1.408839,9.62891 -0.894324,14.46659 0.855279,8.12749 2.321539,16.32073 5.865074,23.75079 0.6548,1.37901 1.301925,2.84861 2.022895,4.13915 0.14067,-1.17892 0.0918,-2.39971 -0.56366,-3.43034 -4.46034,-9.2458 -6.574518,-19.53921 -6.741081,-29.77528 0.05727,-4.62299 1.157044,-9.14986 1.622748,-13.7377 2.339208,-18.04022 2.795378,-36.2901 1.949166,-54.44997 -0.111004,-0.15728 0.09908,-0.83138 -0.213454,-0.81432 z"
       id="path4869"
       inkscape:connector-curvature="0" />
    <path
       style="fill:#8c8ca4;fill-opacity:1;stroke:none;stroke-width:0.61315346;stroke-miterlimit:4;stroke-dasharray:none;stroke-opacity:1"
       d="m 108.56243,180.07376 c -0.58445,7.16954 -0.53012,14.37633 -0.5401,21.5652 0.13536,13.86825 1.26337,27.72261 3.4158,41.42437 1.10096,8.37207 0.17816,16.94405 -2.0521,25.05967 -1.19284,4.11737 -2.66732,8.17963 -4.62272,11.99828 -0.58193,0.5392 -0.23895,1.48661 -0.34558,2.19639 0.0122,0.73914 -0.14143,2.47259 0.44227,0.87688 2.46497,-4.74445 4.71291,-9.64963 5.87319,-14.89516 1.76722,-7.22533 2.92181,-14.71013 2.30928,-22.15917 -1.77954,-11.44924 -3.1731,-22.97513 -3.55408,-34.56397 -0.28392,-9.6258 -0.18689,-19.265 0.20953,-28.88624 0.0292,-0.87817 0.14775,-1.77354 0.19127,-2.63497 -0.43824,0.015 -0.90097,-0.0277 -1.32676,0.0187 z"
       id="path4871"
       inkscape:connector-curvature="0" />
    <path
       style="fill:#ffd42a;stroke:none;stroke-width:0.43356496;stroke-miterlimit:4;stroke-dasharray:none;stroke-opacity:1"
       d="m 103.43441,119.74754 c -5.844605,0.0231 -6.161591,9.32915 -0.39476,9.79282 5.98062,1.00655 7.5875,-8.65083 1.6202,-9.68003 -0.4029,-0.0818 -0.81392,-0.12744 -1.22544,-0.11279 z"
       id="path4823-0"
       inkscape:connector-curvature="0" />
    <path
       style="fill:#ffda4d;fill-opacity:1;stroke:none;stroke-width:0.19908331;stroke-miterlimit:4;stroke-dasharray:none;stroke-opacity:1"
       d="m 72.317459,177.88585 c -0.621282,-0.21259 -1.141833,-0.62531 -1.56738,-1.24273 -0.685101,-0.99399 -0.99051,-2.07159 -0.98763,-3.48472 0.0016,-0.89822 0.09347,-1.44567 0.372755,-2.22711 0.849199,-2.37591 2.937027,-3.28117 4.452419,-1.93051 0.691078,0.61594 1.253082,1.68856 1.466539,2.79893 l 0.05634,0.29336 5.188454,0.0356 12.305954,0.19213 0.02645,0.19767 c 0.05384,0.40216 0.411125,4.01797 0.398133,4.02934 -0.007,0.006 -0.681465,-0.0923 -1.497918,-0.21951 -3.806993,-0.5932 -16.393765,-1.58978 -16.448408,-1.58978 -0.03465,0 -0.10745,0.16171 -0.169661,0.37698 -0.406303,1.40611 -1.274769,2.48451 -2.241219,2.78302 -0.426126,0.13161 -0.947309,0.1267 -1.354907,-0.0127 z"
       id="path4777-9"
       inkscape:connector-curvature="0"
       sodipodi:nodetypes="cccccccccccsscscc" />
    <path
       style="fill:#ffda4d;fill-opacity:1;stroke:none;stroke-width:0.19908331;stroke-miterlimit:4;stroke-dasharray:none;stroke-opacity:1"
       d="m 133.91626,178.23372 c 0.62128,-0.21258 1.14184,-0.62531 1.56738,-1.24273 0.6851,-0.99398 0.99051,-2.07158 0.98763,-3.48472 -0.002,-0.89823 -0.0935,-1.44566 -0.37275,-2.22711 -0.8492,-2.3759 -2.93703,-3.28116 -4.45242,-1.93051 -0.69108,0.61594 -1.25309,1.68857 -1.46654,2.79893 l -0.0563,0.29337 -5.18845,0.0357 -12.30595,0.19212 -0.0265,0.19768 c -0.0539,0.40216 -0.41113,4.01796 -0.39814,4.02933 0.007,0.006 0.68147,-0.0923 1.49792,-0.2195 3.80699,-0.59319 16.39376,-1.58978 16.44841,-1.58978 0.0347,0 0.10745,0.16171 0.16967,0.37699 0.40629,1.4061 1.27477,2.4845 2.24121,2.783 0.42613,0.13162 0.94731,0.12671 1.3549,-0.0128 z"
       id="path4777-9-0"
       inkscape:connector-curvature="0"
       sodipodi:nodetypes="cccccccccccsscscc" />
    <path
       style="fill:#853500;fill-opacity:1;stroke:none;stroke-width:0.15765998;stroke-miterlimit:4;stroke-dasharray:none;stroke-opacity:1"
       d="m 102.38007,132.23198 c -2.01073,1.38009 -3.569875,3.40463 -4.351625,5.71755 -0.766725,2.28871 -0.91136,4.72905 -0.943777,7.12555 0.04748,3.94981 0.542287,7.87616 0.758317,11.81756 0.29165,4.5143 0.61584,9.02687 1.0298,13.53177 0.11603,-0.0128 0.3963,0.10018 0.46855,-0.056 -0.36979,-4.04432 -0.60538,-8.10089 -0.89441,-12.15186 -0.26168,-3.30874 -0.70558,-6.70029 0.0617,-9.97389 0.42476,-1.8249 1.32609,-3.58799 2.813365,-4.7677 0.55671,-0.44165 1.15849,-0.98278 1.9162,-0.9367 0.50824,-0.0179 1.06464,-0.0468 1.48102,0.30061 1.11972,0.71888 2.08362,1.68863 2.70001,2.8761 1.35427,2.47818 1.47779,5.39273 1.34522,8.15199 -0.14263,2.60028 -0.42106,5.19115 -0.55355,7.79234 -0.1874,2.8658 -0.4126,5.72982 -0.65001,8.59129 0,0.31477 0.42241,0.16839 0.61696,0.18117 0.24134,-0.11373 0.12092,-0.4763 0.18999,-0.68436 0.49508,-5.082 0.77324,-10.18149 1.13583,-15.27365 0.28129,-3.87267 0.76334,-7.75317 0.53925,-11.6416 -0.19459,-2.90978 -0.87371,-5.92643 -2.71698,-8.25903 -0.70228,-0.80734 -1.45742,-1.602 -2.37472,-2.16515 -0.55193,-0.21345 -1.17119,-0.0976 -1.74979,-0.15672 -0.27353,-0.005 -0.549,-0.0223 -0.8214,-0.0193 z"
       id="path5185"
       inkscape:connector-curvature="0" />
  </g>
</svg>
