<?xml version="1.0" encoding="UTF-8" standalone="no"?>
<!-- Created with Inkscape (http://www.inkscape.org/) -->

<svg
   xmlns:dc="http://purl.org/dc/elements/1.1/"
   xmlns:cc="http://creativecommons.org/ns#"
   xmlns:rdf="http://www.w3.org/1999/02/22-rdf-syntax-ns#"
   xmlns:svg="http://www.w3.org/2000/svg"
   xmlns="http://www.w3.org/2000/svg"
   xmlns:sodipodi="http://sodipodi.sourceforge.net/DTD/sodipodi-0.dtd"
   xmlns:inkscape="http://www.inkscape.org/namespaces/inkscape"
   width="210mm"
   height="210mm"
   viewBox="0 0 210 210"
   version="1.1"
   id="svg8"
   inkscape:version="0.92.3 (2405546, 2018-03-11)"
   sodipodi:docname="icon.svg">
  <defs
     id="defs2" />
  <sodipodi:namedview
     id="base"
     pagecolor="#ffffff"
     bordercolor="#666666"
     borderopacity="1.0"
     inkscape:pageopacity="0.0"
     inkscape:pageshadow="2"
     inkscape:zoom="0.7"
     inkscape:cx="403.63026"
     inkscape:cy="407.6354"
     inkscape:document-units="mm"
     inkscape:current-layer="layer1"
     showgrid="false"
     showguides="true"
     inkscape:guide-bbox="true"
     inkscape:window-width="1866"
     inkscape:window-height="1051"
     inkscape:window-x="54"
     inkscape:window-y="708"
     inkscape:window-maximized="1" />
  <metadata
     id="metadata5">
    <rdf:RDF>
      <cc:Work
         rdf:about="">
        <dc:format>image/svg+xml</dc:format>
        <dc:type
           rdf:resource="http://purl.org/dc/dcmitype/StillImage" />
        <dc:title></dc:title>
      </cc:Work>
    </rdf:RDF>
  </metadata>
  <g
     inkscape:label="Layer 1"
     inkscape:groupmode="layer"
     id="layer1"
     transform="translate(0,-87)">
    <circle
       style="fill:#686868;fill-opacity:1;stroke:none;stroke-width:0.80888891;stroke-miterlimit:4;stroke-dasharray:none;stroke-opacity:1"
       id="path5244"
       cx="104.69939"
       cy="190.41072"
       r="103.1875" />
    <path
       style="fill:none;stroke:#000000;stroke-width:0.93030667;stroke-linecap:butt;stroke-linejoin:miter;stroke-miterlimit:4;stroke-dasharray:none;stroke-opacity:1"
       d="m 102.89581,174.40848 -2e-5,120.01209 6.17413,-12.02398 c 0,0 6.13763,-13.20848 6.39439,-32.84479 -3.85924,-21.20958 -5.92101,-48.83845 -3.737,-75.14754"
       id="path4771"
       inkscape:connector-curvature="0" />
    <path
       style="fill:none;stroke:#000000;stroke-width:0.93030667;stroke-linecap:butt;stroke-linejoin:miter;stroke-miterlimit:4;stroke-dasharray:none;stroke-opacity:1"
       d="m 94.06145,174.40121 c 2.184324,26.30973 0.122535,53.93954 -3.736818,75.14972 0.25675,19.63632 6.394386,32.84479 6.394386,32.84479 l 6.174132,12.02354 V 174.4085"
       id="path4765"
       inkscape:connector-curvature="0" />
    <circle
       style="fill:none;stroke:#000000;stroke-width:0.93030667;stroke-miterlimit:4;stroke-dasharray:none;stroke-opacity:1"
       id="path4528"
       cx="103.48588"
       cy="115.81436"
       r="7.5315666" />
    <path
       style="fill:none;stroke:#000000;stroke-width:0.93030667;stroke-linecap:butt;stroke-linejoin:miter;stroke-miterlimit:4;stroke-dasharray:none;stroke-opacity:1"
       d="m 97.629947,166.2107 c 0,0 -0.905857,-10.22707 -1.296383,-17.58364 -0.390534,-7.35657 -3.201895,-20.26185 5.776476,-25.44552"
       id="path4575"
       inkscape:connector-curvature="0"
       sodipodi:nodetypes="ccc" />
    <path
       style="fill:none;stroke:#000000;stroke-width:0.93030667;stroke-linecap:butt;stroke-linejoin:miter;stroke-miterlimit:4;stroke-dasharray:none;stroke-opacity:1"
       d="m 109.24611,166.2107 c 0,0 0.90585,-10.22707 1.29638,-17.58364 0.39053,-7.35657 3.2019,-20.26185 -5.77649,-25.44552"
       id="path4575-5"
       inkscape:connector-curvature="0"
       sodipodi:nodetypes="ccc" />
    <path
       style="fill:none;stroke:#000000;stroke-width:0.93030667;stroke-linecap:butt;stroke-linejoin:miter;stroke-miterlimit:4;stroke-dasharray:none;stroke-opacity:1"
       d="M 103.43356,108.35096 V 87.41581"
       id="path4620"
       inkscape:connector-curvature="0" />
    <path
       inkscape:connector-curvature="0"
       id="path4691-9"
       style="fill:none;stroke:#000000;stroke-width:0.93030667;stroke-linecap:butt;stroke-linejoin:miter;stroke-miterlimit:4;stroke-dasharray:none;stroke-opacity:1"
       d="m 112.48121,166.2062 -19.318249,-6.7e-4 m 0.82382,8.19814 17.740529,6.7e-4 M 70.219416,159.89178 c -3.300804,0 -5.976629,3.82853 -5.976586,8.55123 1.1e-4,4.72253 2.675892,8.55079 5.976586,8.55078 2.455823,-0.003 4.490607,-2.15601 5.387888,-5.42679 l 18.379477,2.83642 -0.82382,-8.19808 -17.357671,-0.0643 c -0.721673,-3.6943 -2.904899,-6.24897 -5.585874,-6.24931 z m 65.374894,6.8e-4 c -2.68096,4.5e-4 -4.86375,2.55502 -5.58542,6.24931 l -17.35767,0.0643 -0.92391,8.19808 18.47957,-2.83643 c 0.89726,3.27079 2.93164,5.42332 5.38743,5.42678 3.3007,2e-5 5.97649,-3.82824 5.97659,-8.55077 5e-5,-4.72269 -2.67578,-8.55123 -5.97659,-8.55122 z" />
    <path
       style="fill:#ffcc00;stroke:#000000;stroke-width:0.33225238;stroke-miterlimit:4;stroke-dasharray:none;stroke-opacity:1"
       d="m 69.044283,176.28186 c -1.036869,-0.3548 -1.905621,-1.0436 -2.615813,-2.07401 -1.143382,-1.65888 -1.653079,-3.4573 -1.648267,-5.81569 0.0032,-1.49907 0.155988,-2.41269 0.622094,-3.71685 1.417228,-3.96517 4.901637,-5.47598 7.430696,-3.22186 1.15334,1.02795 2.091281,2.81806 2.447518,4.67117 l 0.09412,0.48959 8.659065,0.0596 8.659088,0.0595 0.0442,0.3299 c 0.08987,0.67116 0.686137,6.70562 0.664453,6.7246 -0.0123,0.0108 -1.137317,-0.15404 -2.499902,-0.36635 -6.353526,-0.98998 -15.481293,-2.39213 -15.572478,-2.39213 -0.05789,0 -0.179327,0.26988 -0.283155,0.62916 -0.678081,2.34666 -2.127464,4.14643 -3.740376,4.64461 -0.711176,0.21965 -1.580981,0.21147 -2.261232,-0.0213 z"
       id="path4777"
       inkscape:connector-curvature="0" />
    <path
       style="fill:#ffcc00;stroke:#000000;stroke-width:0.33225238;stroke-miterlimit:4;stroke-dasharray:none;stroke-opacity:1"
       d="m 134.45617,176.29377 c -0.61318,-0.21051 -1.45784,-0.77138 -1.8862,-1.25247 -0.75163,-0.84417 -1.40181,-2.05259 -1.79112,-3.32895 -0.11459,-0.37561 -0.25109,-0.68252 -0.30338,-0.682 -0.0523,4.5e-4 -4.15882,0.62591 -9.12567,1.38976 -4.96682,0.76386 -9.03506,1.38378 -9.04052,1.37762 -0.005,-0.006 0.1644,-1.53961 0.3775,-3.40766 0.21307,-1.86806 0.38837,-3.45465 0.38953,-3.52577 0.003,-0.11794 0.76175,-0.13447 8.65312,-0.18818 4.75804,-0.0324 8.65924,-0.0664 8.66933,-0.0755 0.0101,-0.009 0.12231,-0.42822 0.24935,-0.93124 0.82337,-3.26019 2.71692,-5.26889 4.96684,-5.26889 1.09274,0 2.05916,0.45731 3.03685,1.43707 1.46547,1.46857 2.27061,3.53287 2.37305,6.08429 0.0746,1.85725 -0.19231,3.39291 -0.84803,4.87947 -0.80344,1.82146 -2.27668,3.25187 -3.68278,3.57571 -0.59619,0.13731 -1.50341,0.10026 -2.03787,-0.0832 z"
       id="path4779"
       inkscape:connector-curvature="0" />
    <path
       style="fill:#ffcc00;fill-opacity:1;stroke:#000000;stroke-width:0.33225238;stroke-miterlimit:4;stroke-dasharray:none;stroke-opacity:1"
       d="m 94.422431,173.64667 c -0.04283,-0.26096 -0.683854,-6.6755 -0.683854,-6.84318 0,-0.0656 2.450718,-0.0896 9.174793,-0.0896 h 9.17483 l -0.40357,3.59625 -0.40354,3.59625 h -8.40802 -8.408011 z"
       id="path4783"
       inkscape:connector-curvature="0" />
    <path
       style="fill:#4d4d4d;stroke:#000000;stroke-width:0.93975168;stroke-miterlimit:4;stroke-dasharray:none;stroke-opacity:1"
       d="m 94.679158,175.05818 c 1.66966,22.30128 0.678932,44.78554 -2.536308,66.90659 -0.6342,4.00794 -1.518953,8.03148 -1.045439,12.11338 0.570359,8.78465 2.127218,17.5934 5.307058,25.82492 1.73849,4.01296 3.758461,8.01466 5.843901,11.78978 0.0914,-38.88299 0.0718,-77.7913 0.038,-116.65896 -2.532035,0.0163 -5.092824,-0.0324 -7.607182,0.0243 z"
       id="path4807"
       inkscape:connector-curvature="0" />
    <path
       style="fill:#4d4d4d;stroke:#000000;stroke-width:0.77046305;stroke-miterlimit:4;stroke-dasharray:none;stroke-opacity:1"
       d="m 103.394,175.05642 c 0.003,38.99168 0.005,77.98336 0.008,116.97505 3.13077,-5.8978 6.49408,-11.92888 8.11628,-18.517 2.06024,-7.70504 3.26272,-15.68254 3.29779,-23.66263 -0.9567,-7.03615 -2.19959,-14.04167 -2.84191,-21.12174 -1.32882,-12.3978 -1.83898,-24.87331 -1.55989,-37.33924 0.0975,-5.45311 0.19781,-10.94516 0.73264,-16.35697 -2.58082,0.0153 -5.18707,-0.0299 -7.75242,0.0225 z"
       id="path4809"
       inkscape:connector-curvature="0" />
    <path
       style="fill:#000000;stroke:#000000;stroke-width:0.02076577;stroke-miterlimit:4;stroke-dasharray:none;stroke-opacity:1"
       d="m 103.35747,292.12455 c -0.0235,0.0239 -0.009,0.0632 -0.0141,0.0934 1e-5,0.0891 -0.003,0.17901 0.003,0.26759 0.0101,0.0339 0.0493,0.009 0.0519,-0.0166 0.0471,-0.0943 0.0988,-0.18726 0.14319,-0.28244 0.005,-0.0361 -0.0454,-0.0303 -0.0683,-0.0404 -0.0375,-0.006 -0.0762,-0.0273 -0.11405,-0.0215 z"
       id="path4819"
       inkscape:connector-curvature="0" />
    <path
       style="fill:#9d4100;fill-opacity:1;stroke:#000000;stroke-width:0.46987584;stroke-miterlimit:4;stroke-dasharray:none;stroke-opacity:1"
       d="m 102.0625,123.78961 c -2.853448,1.8108 -4.765961,4.87554 -5.388437,8.17337 -1.172337,5.96723 -0.06279,12.04039 0.237484,18.03454 0.360444,5.2207 0.678797,10.44746 1.200354,15.65474 3.528469,0.0333 7.107509,0.0316 10.636849,6.8e-4 0.51019,-4.59871 0.75252,-9.22639 1.09585,-13.84084 0.22354,-5.21487 1.03165,-10.40603 0.87557,-15.63383 -0.15407,-3.49173 -0.89848,-7.16624 -3.15665,-9.93772 -0.83579,-0.91078 -1.72775,-1.89256 -2.83863,-2.42231 -0.88722,-0.008 -1.77625,-0.028 -2.66239,-0.0288 z"
       id="path4821"
       inkscape:connector-curvature="0" />
    <path
       style="fill:#ffd42a;stroke:#000000;stroke-width:0.46987584;stroke-miterlimit:4;stroke-dasharray:none;stroke-opacity:1"
       d="m 103.19447,108.78982 c -2.94132,0.0939 -5.633036,2.33215 -6.457327,5.12252 -0.604081,2.33142 -0.07597,5.01229 1.721327,6.69684 1.89448,2.17021 5.21209,2.82724 7.81488,1.62288 2.67334,-1.14188 4.50604,-4.05159 4.17735,-6.973 -0.12594,-2.6875 -2.11767,-5.0704 -4.56673,-6.04122 -0.85769,-0.31186 -1.77744,-0.45703 -2.6895,-0.42802 z"
       id="path4823"
       inkscape:connector-curvature="0" />
    <path
       style="fill:#ffd42a;stroke:#000000;stroke-width:0.46987584;stroke-miterlimit:4;stroke-dasharray:none;stroke-opacity:1"
       d="m 95.216177,175.55579 c 0.854298,10.97463 0.778641,21.99634 0.527642,32.99306 -0.512515,12.80907 -1.80533,25.58541 -3.849574,38.24005 -0.786048,4.79314 -0.137236,9.65305 0.424418,14.43106 0.87739,6.53465 2.348704,13.03584 4.867625,19.14342 1.346294,3.12481 2.937072,6.13545 4.450142,9.18106 0.10978,-2.34756 0.0367,-4.84004 0.0762,-7.24331 0.13813,-31.69154 0.14811,-63.38367 0.0768,-95.0754 -0.0335,-3.89497 -0.0326,-7.81441 -0.11371,-11.69378 -2.14955,0.016 -4.32725,-0.0318 -6.459548,0.0238 z"
       id="path4825"
       inkscape:connector-curvature="0" />
    <path
       style="fill:#4b4b8a;fill-opacity:1;stroke:#000000;stroke-width:0.47022775;stroke-miterlimit:4;stroke-dasharray:none;stroke-opacity:1"
       d="m 107.24962,175.52908 c -1.10415,-0.003 -2.20627,-6.4e-4 -3.29837,0.0254 0.0139,38.04689 -0.0339,76.0936 0.0433,114.14036 0.5515,-0.73175 0.93706,-1.74556 1.41385,-2.58467 2.41892,-4.58548 4.56871,-9.35173 5.78777,-14.40937 1.82115,-7.07449 2.97306,-14.35163 3.08293,-21.66388 -0.1972,-3.98413 -1.02431,-7.90464 -1.51349,-11.8579 -1.42437,-9.9009 -2.33904,-19.87884 -2.70488,-29.87551 -0.18815,-8.30069 -0.17275,-16.60742 0.0109,-24.90806 0.0685,-2.95603 0.30553,-5.93037 0.4882,-8.86327 -1.0998,0.008 -2.20603,-2.5e-4 -3.31019,-0.003 z m -5.91102,0.22902 c -0.92651,6.6e-4 -1.853084,6.7e-4 -2.779614,0.002 -0.968284,0.0437 -1.993786,-0.0657 -2.932578,0.11539 -0.122467,1.76577 0.198191,3.54727 0.225514,5.31883 0.365389,8.13966 0.223117,16.29186 0.198436,24.43692 -0.05753,6.76814 -0.630016,13.5199 -1.214114,20.25922 -0.64624,7.19027 -1.666819,14.33792 -2.723222,21.47638 -0.726392,5.58361 0.124056,11.2086 0.93134,16.73357 1.139981,7.05912 3.069411,14.05379 6.404881,20.40912 0.637357,1.237 1.213687,2.60524 1.890657,3.76033 0.18807,-13.64938 0.10139,-27.30121 0.14291,-40.95153 0,-23.19637 0.0493,-46.39276 -0.0481,-69.5889 -0.0402,-0.65334 -0.0203,-1.3337 -0.0961,-1.97107 z"
       id="path4829"
       inkscape:connector-curvature="0" />
    <path
       style="fill:#ffda4d;fill-opacity:1;stroke:none;stroke-width:0.46987584;stroke-miterlimit:4;stroke-dasharray:none;stroke-opacity:1"
       d="m 101.18257,167.36247 c -2.231317,0.0299 -4.472231,-0.0277 -6.692899,0.0752 0.124704,1.93843 0.333481,3.85151 0.556357,5.78079 5.219002,0.0986 10.439142,0.0381 15.658412,-4.3e-4 0.20963,-1.95289 0.47017,-3.90049 0.64334,-5.85728 -3.3884,-6.7e-4 -6.77681,-3e-5 -10.16521,0.002 z"
       id="path4833"
       inkscape:connector-curvature="0" />
    <path
       style="fill:#8c8ca4;fill-opacity:1;stroke:none;stroke-width:0.66450477;stroke-miterlimit:4;stroke-dasharray:none;stroke-opacity:1"
       d="m 96.65464,176.02312 c -0.642211,0.009 -1.074819,0.28337 -0.779357,1.00111 0.53525,9.06327 0.465166,18.15515 0.452881,27.23228 -0.08299,12.26222 -1.35003,24.48651 -2.9761,36.63019 -0.84378,5.17236 -1.526829,10.43532 -0.969223,15.67816 0.926908,8.80816 2.515967,17.68758 6.356279,25.7399 0.709631,1.49451 1.41096,3.08719 2.19231,4.48581 0.15245,-1.27766 0.0995,-2.60069 -0.61086,-3.71763 -4.833904,-10.02013 -7.125143,-21.17561 -7.305656,-32.26895 0.06207,-5.01016 1.253946,-9.91616 1.758652,-14.88822 2.535123,-19.55109 3.029491,-39.32939 2.112405,-59.01014 -0.120297,-0.17045 0.107385,-0.901 -0.231331,-0.88251 z"
       id="path4869"
       inkscape:connector-curvature="0" />
    <path
       style="fill:#8c8ca4;fill-opacity:1;stroke:none;stroke-width:0.66450477;stroke-miterlimit:4;stroke-dasharray:none;stroke-opacity:1"
       d="m 108.82416,175.85922 c -0.63339,7.76999 -0.57451,15.58034 -0.58533,23.37128 0.1467,15.0297 1.36918,30.04436 3.70187,44.89364 1.19317,9.07323 0.19308,18.36311 -2.22396,27.1584 -1.29274,4.4622 -2.89071,8.86468 -5.00987,13.00313 -0.63067,0.58436 -0.25896,1.61112 -0.37452,2.38034 0.0132,0.80104 -0.15328,2.67967 0.47931,0.95032 2.67141,-5.14179 5.10761,-10.45778 6.36506,-16.14262 1.91523,-7.83045 3.16651,-15.9421 2.50269,-24.01499 -1.92858,-12.40811 -3.43885,-24.89929 -3.85174,-37.45869 -0.30769,-10.43196 -0.20254,-20.87844 0.22708,-31.30545 0.0316,-0.95172 0.16012,-1.92207 0.20729,-2.85565 -0.47494,0.0163 -0.97643,-0.03 -1.43788,0.0203 z"
       id="path4871"
       inkscape:connector-curvature="0" />
    <path
       style="fill:#ffd42a;stroke:none;stroke-width:0.46987584;stroke-miterlimit:4;stroke-dasharray:none;stroke-opacity:1"
       d="m 103.26667,110.4807 c -6.334098,0.025 -6.677626,10.11047 -0.42782,10.61297 6.4815,1.09085 8.22295,-9.37533 1.75589,-10.49073 -0.43664,-0.0887 -0.88208,-0.13811 -1.32807,-0.12224 z"
       id="path4823-0"
       inkscape:connector-curvature="0" />
    <path
       style="fill:#ffda4d;fill-opacity:1;stroke:none;stroke-width:0.21575645;stroke-miterlimit:4;stroke-dasharray:none;stroke-opacity:1"
       d="m 69.543684,173.48807 c -0.673314,-0.23039 -1.237461,-0.67768 -1.698648,-1.34681 -0.742478,-1.07723 -1.073464,-2.24508 -1.070343,-3.77656 0.0017,-0.97345 0.101302,-1.56674 0.403973,-2.41363 0.920319,-2.57489 3.183002,-3.55596 4.825307,-2.09219 0.748955,0.66753 1.358027,1.82998 1.589361,3.03334 l 0.06106,0.31793 5.622985,0.0386 13.336572,0.20822 0.02867,0.21423 c 0.05835,0.43584 0.445557,4.35447 0.431476,4.36679 -0.0076,0.007 -0.738537,-0.10002 -1.623368,-0.23789 -4.125826,-0.64288 -17.766735,-1.72292 -17.825954,-1.72292 -0.03755,0 -0.116449,0.17525 -0.18387,0.40855 -0.440331,1.52387 -1.381531,2.69259 -2.428921,3.0161 -0.461813,0.14263 -1.026645,0.13731 -1.46838,-0.0138 z"
       id="path4777-9"
       inkscape:connector-curvature="0"
       sodipodi:nodetypes="cccccccccccsscscc" />
    <path
       style="fill:#ffda4d;fill-opacity:1;stroke:none;stroke-width:0.21575645;stroke-miterlimit:4;stroke-dasharray:none;stroke-opacity:1"
       d="m 136.30137,173.86508 c 0.67331,-0.23039 1.23746,-0.67768 1.69864,-1.34681 0.74248,-1.07723 1.07347,-2.24508 1.07035,-3.77657 -0.002,-0.97345 -0.1013,-1.56673 -0.40397,-2.41362 -0.92032,-2.57488 -3.18301,-3.55596 -4.82531,-2.09219 -0.74896,0.66752 -1.35803,1.82998 -1.58936,3.03333 l -0.061,0.31794 -5.62298,0.0387 -13.33657,0.20822 -0.0287,0.21423 c -0.0584,0.43584 -0.44556,4.35446 -0.43148,4.36679 0.008,0.007 0.73854,-0.10002 1.62337,-0.23789 4.12582,-0.64287 17.76673,-1.72292 17.82595,-1.72292 0.0376,0 0.11645,0.17525 0.18388,0.40856 0.44032,1.52386 1.38153,2.69258 2.42891,3.01608 0.46182,0.14264 1.02665,0.13732 1.46838,-0.0139 z"
       id="path4777-9-0"
       inkscape:connector-curvature="0"
       sodipodi:nodetypes="cccccccccccsscscc" />
    <path
       style="fill:#853500;fill-opacity:1;stroke:none;stroke-width:0.17086393;stroke-miterlimit:4;stroke-dasharray:none;stroke-opacity:1"
       d="m 102.12404,124.01071 c -2.17913,1.49567 -3.868862,3.68977 -4.716088,6.19639 -0.830936,2.48039 -0.987684,5.12511 -1.022816,7.72232 0.05146,4.2806 0.587701,8.53578 0.821828,12.80727 0.316071,4.89237 0.667408,9.78287 1.116038,14.66505 0.125757,-0.0139 0.429498,0.10857 0.507795,-0.0607 -0.400767,-4.38303 -0.656086,-8.77934 -0.969314,-13.16957 -0.283602,-3.58585 -0.764679,-7.26144 0.06693,-10.8092 0.460333,-1.97774 1.437144,-3.88849 3.048987,-5.16699 0.60334,-0.47864 1.25552,-1.06509 2.07668,-1.01515 0.55081,-0.0194 1.15381,-0.0507 1.60506,0.32578 1.21349,0.77909 2.25812,1.83005 2.92613,3.11697 1.46769,2.68573 1.60156,5.84437 1.45788,8.83472 -0.15457,2.81805 -0.45632,5.62591 -0.5999,8.44494 -0.2031,3.10581 -0.44716,6.2097 -0.70445,9.31081 0,0.34113 0.45778,0.18249 0.66863,0.19634 0.26155,-0.12325 0.13104,-0.51619 0.2059,-0.74167 0.53654,-5.50761 0.838,-11.03418 1.23095,-16.55281 0.30485,-4.19701 0.82727,-8.4025 0.58442,-12.61658 -0.21089,-3.15347 -0.94689,-6.42277 -2.94453,-8.95072 -0.7611,-0.87495 -1.57948,-1.73617 -2.5736,-2.34648 -0.59816,-0.23133 -1.26928,-0.10578 -1.89634,-0.16985 -0.29643,-0.005 -0.59497,-0.0242 -0.89019,-0.0209 z"
       id="path5185"
       inkscape:connector-curvature="0" />
  </g>
</svg>
